<?xml version="1.0" standalone="no"?>
<!DOCTYPE svg PUBLIC "-//W3C//DTD SVG 20010904//EN"
 "http://www.w3.org/TR/2001/REC-SVG-20010904/DTD/svg10.dtd">
<svg version="1.0" xmlns="http://www.w3.org/2000/svg"
 width="3840.000000pt" height="2560.000000pt" viewBox="0 0 3840.000000 2560.000000"
 preserveAspectRatio="xMidYMid meet">

<g transform="translate(0.000000,2560.000000) scale(0.100000,-0.100000)"
fill="#000000" stroke="none">
<path d="M0 12800 l0 -12800 19200 0 19200 0 0 12800 0 12800 -19200 0 -19200
0 0 -12800z m27110 6633 l0 -1538 -7896 -1438 c-4342 -792 -7897 -1437 -7899
-1435 -3 3 15770 5945 15788 5947 4 1 7 -691 7 -1536z m-10777 -7713 c285
-498 522 -911 524 -917 4 -10 -317 -13 -1586 -13 l-1591 0 0 -660 0 -660 1440
0 1440 0 0 -840 0 -840 -1440 0 -1440 0 0 -660 0 -660 1990 0 1990 0 0 -920 0
-920 -3185 0 -3185 0 0 4000 0 4000 2261 -2 2262 -3 520 -905z m3541 -392
c369 -714 673 -1298 676 -1298 3 1 307 584 676 1298 l671 1297 1306 3 1306 2
-54 -92 c-29 -51 -657 -1141 -1394 -2423 l-1341 -2330 0 -1577 0 -1578 -1190
0 -1190 0 0 1581 0 1580 -1386 2412 c-763 1327 -1388 2415 -1391 2420 -2 4
591 6 1318 5 l1323 -3 670 -1297z"/>
</g>
</svg>
