<?xml version="1.0" encoding="utf-8"?>
<!-- Generator: Adobe Illustrator 25.0.0, SVG Export Plug-In . SVG Version: 6.00 Build 0)  -->
<svg version="1.1" xmlns="http://www.w3.org/2000/svg" xmlns:xlink="http://www.w3.org/1999/xlink" x="0px" y="0px"
	 viewBox="0 0 447.94 97.79" style="enable-background:new 0 0 447.94 97.79;" xml:space="preserve">
<style type="text/css">
	.st0{display:none;}
	.st1{display:inline;}
	.st2{fill:#EE1F7D;}
	.st3{fill:#FFFFFF;}
	.st4{fill:none;stroke:#EE1F7D;stroke-miterlimit:10;}
	.st5{display:inline;fill:#FFFFFF;}
</style>
<g id="Fondo">
</g>
<g id="Anillo" class="st0">
	<g class="st1">
		<path class="st2" d="M324.68,64.95c-13.79,57.23-65.31,99.74-126.76,99.74S84.94,122.17,71.16,64.95H59.52
			c14.01,63.54,70.64,111.08,138.39,111.08c67.74,0,124.38-47.54,138.39-111.08H324.68z"/>
		<path class="st2" d="M71.85,0.89c14.75-55.83,65.6-97,126.07-97s111.32,41.17,126.07,97h11.69
			c-15.02-62.15-70.99-108.33-137.76-108.33c-66.77,0-122.74,46.18-137.76,108.33H71.85z"/>
	</g>
	<g class="st1">
		<path class="st3" d="M70.16-1.5c15.66-55.82,67-96.87,127.75-96.87c60.75,0,112.09,41.05,127.75,96.87l7.04,0
			c-15.84-59.61-70.27-103.67-134.79-103.67c-64.53,0-118.95,44.06-134.79,103.67L70.16-1.5z"/>
		<path class="st3" d="M326.4,67.34c-14.73,57.21-66.74,99.61-128.49,99.61c-61.74,0-113.76-42.4-128.49-99.61l-7.01,0
			c14.88,61,69.98,106.42,135.5,106.42c65.51,0,120.61-45.42,135.49-106.42H326.4z"/>
	</g>
</g>
<g id="Letras">
	<polygon points="220.8,81.28 245.78,81.28 224.02,37.32 194.29,97.78 175.56,97.78 223.97,0 272.37,97.78 212.69,97.78 	"/>
	<g>
		<path d="M356.36,65.67V65.4h-26.58l-0.29-0.58l-1.69-3.41l-1.91-3.86l-3.11-6.27l-1.17-2.38h39.67h16.5
			c0,21.21-13.92,39.26-33.38,46.03c-5.32,1.85-11.04,2.86-17,2.86c-27.83,0-50.39-21.9-50.39-48.9c0-17.61,9.6-33.04,23.99-41.64
			c7.68-4.6,16.72-7.25,26.4-7.25c21.86,0,40.46,13.51,47.43,32.39h-18.3c-5.91-9.5-16.76-15.88-29.14-15.88
			c-7.06,0-13.61,2.07-19.03,5.62c-8.96,5.82-14.85,15.66-14.85,26.77c0,17.85,15.2,32.38,33.88,32.38c3.33,0,6.54-0.46,9.59-1.33
			C345.14,77.65,352.02,72.48,356.36,65.67z"/>
	</g>
	<path d="M146.91,23.44c-0.91-0.78-8.6-6.93-16.77-6.93c-8.16,0-14.79,4.88-14.79,10.91c0,6.02,7.87,9.55,15.71,11.8
		c7.76,2.23,16.68,4.34,22.72,9.17c6.79,5.44,10.33,10.97,10.33,19.67c0,16.42-13.71,29.73-33.95,29.73h-0.01H79.94l8.17-16.51
		h42.03c11.81-0.6,14.84-7.22,14.69-12.95c-0.2-7.27-6.92-11.39-14.7-13.5c-16.68-4.53-31.3-12.28-31.3-27.41
		C98.83,12.28,112.85,0,130.13,0c9.46,0,17.94,3.67,23.68,9.48L146.91,23.44z"/>
	<path class="st4" d="M62.04,144"/>
	<path class="st4" d="M133.32,0"/>
</g>
<g id="Capa_4" class="st0">
	<polygon class="st5" points="200.75,63.26 200.75,15.37 218.32,15.37 218.32,5.33 265.91,5.33 265.91,18.22 231.36,18.22 
		231.36,27.85 255.91,27.85 255.91,40.74 231.36,40.74 231.36,50.37 265.91,50.37 265.91,63.26 	"/>
	<polygon class="st5" points="308.68,63.26 308.68,51.92 272.56,51.92 272.56,5.33 285.53,5.33 285.53,40.12 308.68,40.12 
		308.68,5.33 321.89,5.33 321.89,63.26 	"/>
	<path class="st5" d="M83.92,5.33H32.4v1.34h4.24c10.33,0,18.74,9.1,18.74,20.28v7.35c0,15.97,12.8,28.97,28.54,28.97
		s28.54-12.99,28.54-28.97S99.66,5.33,83.92,5.33z M83.92,50.82c-9,0-16.33-7.41-16.33-16.52s7.32-16.52,16.33-16.52
		s16.33,7.41,16.33,16.52S92.93,50.82,83.92,50.82z"/>
	<path class="st5" d="M18.36,63.26V48.99h17.36c0.49,2.05,1.43,5.04,3.2,7.97c1.14,1.88,3.77,4.92,5.01,6.3H18.36z"/>
	<path class="st5" d="M18.36,38.37V16.76h18.29c5.58,0,10.12,4.85,10.12,10.81c0,5.96-4.54,10.81-10.12,10.81H18.36z"/>
	<path class="st5" d="M143.39,63.26c-13.64,0-24.73-10.49-24.73-23.38V5.33h13.04v34.55c0,6.03,5.25,10.94,11.69,10.94
		c6.45,0,11.69-4.91,11.69-10.94V5.33h13.04v10.04h17.58v47.89H143.39z"/>
	<path class="st5" d="M349.76,5.33h-21.22v57.93h21.22c15.08,0,27.35-12.99,27.35-28.97S364.84,5.33,349.76,5.33z M349.76,50.37
		h-10.1V18.22h10.1c8.47,0,15.36,7.21,15.36,16.08S358.23,50.37,349.76,50.37z"/>
</g>
</svg>
